<svg id="Calque_1" data-name="Calque 1" xmlns="http://www.w3.org/2000/svg" viewBox="0 0 2000 2000"><defs><style>.cls-1{fill:#96191d;}.cls-2{fill:#080915;}.cls-3{fill:#4b68af;}</style></defs><g id="G"><path class="cls-1" d="M702.15,978.12v191.31A299.23,299.23,0,0,1,632,1205.61q-12.4,4.56-25.58,8.29a396.63,396.63,0,0,1-108.72,15.49q-60,0-110.16-17.85-42-14.93-74.85-40.47h0c-.11-.18-.22-.38-.35-.57,33.81-10.22,56.52-33.67,67.37-73.17,1.89,1.11,3.4,1.85,4.78,2.83q9,6.36,18,11.59a.09.09,0,0,0,.07,0c40.39,23.37,82.11,30.14,124.69,23.48a0,0,0,0,0,0,0,245.78,245.78,0,0,0,51.84-14.41c6.6-2.59,11.88-4.75,16.1-6.84.64-.31,1.27-.64,1.87-1,15.11-8,14.81-16.18,14.7-47.81-.1-29,0-58.06-.05-87.1Z"/><path class="cls-1" d="M703.15,810.78c-2,2.79-4,5.58-5.95,8.37C683.07,839,669,858.74,654.65,878.86a202.48,202.48,0,0,0-83.08-51.93c-26.81-8.72-53.8-12-80.87-8q-2.94.44-5.88,1A17.25,17.25,0,0,1,469.68,816l-.4-.56c-1.23-1.66-2.58-3.25-4-4.81-.85-1-1.73-1.94-2.59-2.91-.44-.47-.85-.94-1.27-1.41-12.82-14.45-25.79-28.75-38.39-43.37-8.13-9.46-18.45-15.14-30.42-13.26-11.68,1.83-23.75,5.18-34,10.86a91.79,91.79,0,0,1-14.75,6.65l-.22.08a265.71,265.71,0,0,1,22.8-14.5A255.82,255.82,0,0,1,431.66,727a293.14,293.14,0,0,1,47.45-7.52q69.18-5.38,126.81,18.82Q661.8,761.82,703.15,810.78Z"/><path class="cls-1" d="M463.51,853.48a69.36,69.36,0,0,0-16.89,22.66,66.17,66.17,0,0,0-3,7.64c-1.77,5.57-7.25,11.19-12.52,14.15-9.64,5.43-16.39,12.87-22,22-9.59,15.49-20.86,29.52-36.24,39.8-19.62,13.12-25.21,11.39-33.16-10.57-.1-.32-.23-.63-.33-.94-.63-1.77-1.24-3.56-1.88-5.34-.35-1-.69-2-1.06-2.95-.14-.38-.59-.68-1.67-1.83-3,11.41-11.61,14.09-20.55,14.41-10.06.36-14.86,5.36-19.1,13.88C288.79,979.08,279,990.24,274,1003.3c-12.32,31.81-10.54,63.69,7.05,93.35,7.1,12,18.54,19.24,33.68,16.34a23.44,23.44,0,0,0,9.47-4.26c7.88-6.1,6.67-15-1.94-20.07-2.65-1.54-4.3-4.79-6.39-7.25,2.44-1.8,5-3.45,7.31-5.45,2.78-2.47,6.34-4.77,7.76-7.94,3.12-7,5.12-7.94,11.25-3,13.84,11.2,18.8,32.39,11.58,49.38-10,23.46-34,35-60.4,28.8q-3.51-.82-6.82-1.93h0a73.67,73.67,0,0,1-11-4.58c-14.79-7.58-26.1-19.66-34.25-34.89-7.39-13.8-11.83-29.19-17.56-43.88-.79-2-1.34-4.19-2.12-6.72-16.55,5.53-32.55,11.57-50.44,7.8,20.11-5.63,38.9-12.92,55.25-23.37,1.14-.72,2.27-1.48,3.39-2.24a118.27,118.27,0,0,0,43.1-51.85c-11.34-6.89-18-5.13-23.1,5.67a117.57,117.57,0,0,1-22.6,32.54c-1.08,1.1-2.18,2.17-3.31,3.23q-2.73,2.55-5.69,5c-14.51,11.79-31.25,13.24-48.67,11.72-.2-.69-.41-1.39-.63-2.09,2.1-.71,4.26-1.29,6.31-2.16,10.6-4.43,21.26-8.75,31.72-13.5,4.72-2.12,6.48-5.8,5.77-11.59a291.05,291.05,0,0,1,4.84-99.55,80.54,80.54,0,0,0,2.36-14.85c.67-18.59,6.37-35.19,16.66-50.79,5.44-8.24,8.69-18,12.32-27.36,10.24-26.36,30.4-40.4,58.43-37.4,1.13.12,2.27.23,3.4.29a73.11,73.11,0,0,0,17.86-.88c2.16-.38,4.3-.85,6.4-1.42,1.57-.42,3.13-.9,4.68-1.42l.22-.08a91.85,91.85,0,0,0,14.75-6.66c10.25-5.68,22.33-9,34-10.85,12-1.88,22.29,3.8,30.41,13.26,12.61,14.62,25.58,28.92,38.39,43.36.42.48.83.94,1.27,1.41.87,1,1.74,1.94,2.59,2.91,1.39,1.56,2.75,3.15,4,4.82.14.19.27.37.39.56.47.65.91,1.3,1.3,2h0C472.61,836.79,471.87,845.79,463.51,853.48Z"/></g><path class="cls-2" d="M811.58,1173.37V812.83h97.76v360.54Z"/><path class="cls-2" d="M1233.88,1042.6c0,81.41-51.13,137.1-141.4,137.1-93.15,0-139.37-60.73-139.37-136.13,0-78.7,48.23-137.42,142.53-137.42C1182.33,906.15,1233.88,963.57,1233.88,1042.6Zm-180.77.5c0,49.67,14.77,71.48,40.87,71.48,25.9,0,39.73-22.13,39.73-70.63,0-53.78-13.62-72.16-40.2-72.16C1069.24,971.79,1053.11,989,1053.11,1043.1Z"/><path class="cls-2" d="M1543.58,812.74v361.19h-97.43v-94.34c2.44-11,2.9-23.85,2.9-37,0-15.94-.52-29.41-2.9-40.1V812.74Z"/><path class="cls-2" d="M1410,973.64c22.33,0,32.06,10.17,36.18,28.81V812.83h-1v115c-7.28-12.17-29.44-21.66-60.46-21.66-73.86,0-116.9,59-116.9,138.4,0,62.28,24.71,112.82,71.24,129.37a103.31,103.31,0,0,0,35,5.77c15.49,0,28.1-2,38.49-5.77a65.22,65.22,0,0,0,33-25.44c.15,1.88.37,4.15.64,6.62v-75.52c-4.14,18.7-14.06,31.92-37.33,31.92-27.4,0-40.9-23.6-40.9-69.29C1367.92,995.74,1382.51,973.64,1410,973.64Z"/><path class="cls-2" d="M1597.77,912.47v260.9h97.76V912.47Z"/><rect class="cls-1" x="1597.77" y="812.74" width="95.74" height="85.13"/><rect class="cls-3" x="1735.36" y="1088.21" width="95.74" height="85.13"/></svg>