<svg id="Calque_1" data-name="Calque 1" xmlns="http://www.w3.org/2000/svg" viewBox="0 0 512 512"><defs><style>.cls-1{fill:#96191d;}</style></defs><g id="G"><path class="cls-1" d="M434.91,247.06v140.6a219.48,219.48,0,0,1-51.54,26.58q-9.11,3.36-18.8,6.1a291.6,291.6,0,0,1-79.89,11.38q-44.07,0-81-13.12a195.63,195.63,0,0,1-55-29.74h0l-.25-.42C173.3,380.92,190,363.69,198,334.66c1.38.82,2.49,1.36,3.51,2.08q6.59,4.68,13.23,8.52a.05.05,0,0,0,0,0c29.69,17.17,60.35,22.15,91.64,17.25h0a180.65,180.65,0,0,0,38.1-10.59c4.85-1.91,8.73-3.49,11.83-5l1.37-.71c11.11-5.92,10.89-11.89,10.81-35.14-.07-21.33,0-42.66,0-64Z"/><path class="cls-1" d="M435.64,124.08l-4.37,6.15c-10.38,14.56-20.72,29.1-31.27,43.89A148.71,148.71,0,0,0,339,136c-19.7-6.41-39.54-8.84-59.43-5.88-1.44.21-2.89.45-4.33.72a13.32,13.32,0,0,1-6.29-.21,13.08,13.08,0,0,1-4.83-2.65l-.29-.4c-.91-1.23-1.9-2.4-2.92-3.55L259,121.85c-.32-.35-.63-.69-.93-1-9.42-10.61-18.95-21.13-28.21-31.87-6-7-13.56-11.12-22.36-9.75-8.58,1.35-17.46,3.81-25,8a66.49,66.49,0,0,1-10.84,4.89l-.16.06a193.23,193.23,0,0,1,16.76-10.66,188,188,0,0,1,47.91-18.92A215.06,215.06,0,0,1,271,57q50.83-3.94,93.19,13.83Q405.26,88.1,435.64,124.08Z"/><path class="cls-1" d="M259.53,155.46a51,51,0,0,0-12.41,16.66,48,48,0,0,0-2.17,5.61c-1.31,4.1-5.33,8.22-9.21,10.4-7.08,4-12,9.46-16.19,16.18-7.05,11.39-15.33,21.69-26.63,29.25-14.43,9.64-18.53,8.37-24.38-7.77-.07-.23-.16-.46-.24-.68-.46-1.31-.91-2.63-1.38-3.93-.26-.72-.51-1.45-.78-2.17-.1-.28-.44-.5-1.22-1.34-2.21,8.38-8.54,10.35-15.11,10.59-7.39.26-10.92,3.93-14,10.2-4.65,9.31-11.84,17.51-15.56,27.11-9,23.38-7.74,46.8,5.18,68.6,5.22,8.79,13.63,14.14,24.76,12a17.21,17.21,0,0,0,7-3.12c5.79-4.49,4.9-11.07-1.43-14.75-1.95-1.13-3.16-3.52-4.69-5.33,1.79-1.32,3.69-2.53,5.37-4,2-1.81,4.66-3.5,5.7-5.83,2.29-5.18,3.77-5.83,8.27-2.18,10.17,8.22,13.82,23.8,8.51,36.28-7.33,17.24-25,25.76-44.39,21.17-1.72-.4-3.38-.87-5-1.41h0a53.9,53.9,0,0,1-8-3.37C110.52,358,102.21,349.16,96.21,338c-5.43-10.15-8.69-21.45-12.9-32.25-.58-1.5-1-3.08-1.56-4.93-12.16,4-23.92,8.49-37.06,5.73,14.77-4.14,28.58-9.5,40.6-17.18.84-.53,1.67-1.09,2.49-1.65a87,87,0,0,0,31.68-38.1c-8.34-5.06-13.21-3.77-17,4.17a86.76,86.76,0,0,1-16.61,23.91q-1.2,1.21-2.43,2.37c-1.34,1.26-2.74,2.47-4.18,3.64-10.67,8.67-23,9.73-35.77,8.62-.15-.51-.31-1-.47-1.54,1.55-.52,3.13-.95,4.64-1.59,7.79-3.25,15.63-6.43,23.31-9.92,3.47-1.56,4.76-4.26,4.24-8.52a213.77,213.77,0,0,1,3.56-73.16,58.3,58.3,0,0,0,1.73-10.91,70.77,70.77,0,0,1,12.25-37.32c4-6.06,6.38-13.27,9-20.11,7.52-19.38,22.34-29.69,42.94-27.49.83.09,1.67.17,2.5.21a53.68,53.68,0,0,0,13.13-.64c1.58-.28,3.15-.63,4.7-1,1.15-.31,2.3-.66,3.44-1l.16-.06a66.88,66.88,0,0,0,10.84-4.89c7.53-4.18,16.41-6.64,25-8,8.8-1.38,16.38,2.8,22.35,9.74,9.27,10.75,18.8,21.26,28.22,31.87.3.35.61.7.93,1,.64.72,1.28,1.42,1.91,2.14,1,1.15,2,2.31,2.91,3.54.11.14.2.27.3.41.34.48.66,1,.95,1.44h0C266.22,143.2,265.68,149.81,259.53,155.46Z"/></g></svg>